<mxfile host="app.diagrams.net" agent="Mozilla/5.0 (Macintosh; Intel Mac OS X 10_15_7) AppleWebKit/537.36 (KHTML, like Gecko) Chrome/130.0.0.0 Safari/537.36" version="24.8.3">
  <diagram name="Page-1" id="uMUQG2mPH0FVotczIO6_">
    <mxGraphModel dx="954" dy="581" grid="1" gridSize="10" guides="1" tooltips="1" connect="1" arrows="1" fold="1" page="1" pageScale="1" pageWidth="827" pageHeight="1169" math="0" shadow="0">
      <root>
        <mxCell id="0" />
        <mxCell id="1" parent="0" />
        <mxCell id="w3fj2gbgNoyU7OF5bVDR-1" value="" style="endArrow=none;html=1;rounded=0;" parent="1" edge="1">
          <mxGeometry width="50" height="50" relative="1" as="geometry">
            <mxPoint x="160" y="320" as="sourcePoint" />
            <mxPoint x="200" y="320" as="targetPoint" />
          </mxGeometry>
        </mxCell>
        <mxCell id="w3fj2gbgNoyU7OF5bVDR-2" value="" style="endArrow=none;html=1;rounded=0;" parent="1" edge="1">
          <mxGeometry width="50" height="50" relative="1" as="geometry">
            <mxPoint x="200" y="320" as="sourcePoint" />
            <mxPoint x="200" y="280" as="targetPoint" />
          </mxGeometry>
        </mxCell>
        <mxCell id="w3fj2gbgNoyU7OF5bVDR-3" value="" style="endArrow=none;html=1;rounded=0;" parent="1" edge="1">
          <mxGeometry width="50" height="50" relative="1" as="geometry">
            <mxPoint x="200" y="280" as="sourcePoint" />
            <mxPoint x="240" y="280" as="targetPoint" />
          </mxGeometry>
        </mxCell>
        <mxCell id="w3fj2gbgNoyU7OF5bVDR-4" value="" style="endArrow=none;html=1;rounded=0;" parent="1" edge="1">
          <mxGeometry width="50" height="50" relative="1" as="geometry">
            <mxPoint x="240" y="320" as="sourcePoint" />
            <mxPoint x="240" y="280" as="targetPoint" />
          </mxGeometry>
        </mxCell>
        <mxCell id="w3fj2gbgNoyU7OF5bVDR-6" value="" style="endArrow=none;html=1;rounded=0;" parent="1" edge="1">
          <mxGeometry width="50" height="50" relative="1" as="geometry">
            <mxPoint x="240" y="320" as="sourcePoint" />
            <mxPoint x="280" y="320" as="targetPoint" />
          </mxGeometry>
        </mxCell>
        <mxCell id="w3fj2gbgNoyU7OF5bVDR-7" value="" style="endArrow=none;html=1;rounded=0;" parent="1" edge="1">
          <mxGeometry width="50" height="50" relative="1" as="geometry">
            <mxPoint x="280" y="320" as="sourcePoint" />
            <mxPoint x="280" y="280" as="targetPoint" />
          </mxGeometry>
        </mxCell>
        <mxCell id="w3fj2gbgNoyU7OF5bVDR-8" value="" style="endArrow=none;html=1;rounded=0;" parent="1" edge="1">
          <mxGeometry width="50" height="50" relative="1" as="geometry">
            <mxPoint x="280" y="280" as="sourcePoint" />
            <mxPoint x="320" y="280" as="targetPoint" />
          </mxGeometry>
        </mxCell>
        <mxCell id="w3fj2gbgNoyU7OF5bVDR-9" value="" style="endArrow=none;html=1;rounded=0;" parent="1" edge="1">
          <mxGeometry width="50" height="50" relative="1" as="geometry">
            <mxPoint x="320" y="320" as="sourcePoint" />
            <mxPoint x="320" y="280" as="targetPoint" />
          </mxGeometry>
        </mxCell>
        <mxCell id="w3fj2gbgNoyU7OF5bVDR-10" value="" style="endArrow=none;html=1;rounded=0;" parent="1" edge="1">
          <mxGeometry width="50" height="50" relative="1" as="geometry">
            <mxPoint x="320" y="320" as="sourcePoint" />
            <mxPoint x="360" y="320" as="targetPoint" />
          </mxGeometry>
        </mxCell>
        <mxCell id="w3fj2gbgNoyU7OF5bVDR-11" value="" style="endArrow=none;html=1;rounded=0;" parent="1" edge="1">
          <mxGeometry width="50" height="50" relative="1" as="geometry">
            <mxPoint x="360" y="320" as="sourcePoint" />
            <mxPoint x="360" y="280" as="targetPoint" />
          </mxGeometry>
        </mxCell>
        <mxCell id="w3fj2gbgNoyU7OF5bVDR-12" value="" style="endArrow=none;html=1;rounded=0;" parent="1" edge="1">
          <mxGeometry width="50" height="50" relative="1" as="geometry">
            <mxPoint x="360" y="280" as="sourcePoint" />
            <mxPoint x="400" y="280" as="targetPoint" />
          </mxGeometry>
        </mxCell>
        <mxCell id="w3fj2gbgNoyU7OF5bVDR-13" value="" style="endArrow=none;html=1;rounded=0;" parent="1" edge="1">
          <mxGeometry width="50" height="50" relative="1" as="geometry">
            <mxPoint x="400" y="320" as="sourcePoint" />
            <mxPoint x="400" y="280" as="targetPoint" />
          </mxGeometry>
        </mxCell>
        <mxCell id="w3fj2gbgNoyU7OF5bVDR-14" value="" style="endArrow=none;html=1;rounded=0;" parent="1" edge="1">
          <mxGeometry width="50" height="50" relative="1" as="geometry">
            <mxPoint x="400" y="320" as="sourcePoint" />
            <mxPoint x="440" y="320" as="targetPoint" />
          </mxGeometry>
        </mxCell>
        <mxCell id="w3fj2gbgNoyU7OF5bVDR-15" value="" style="endArrow=none;html=1;rounded=0;" parent="1" edge="1">
          <mxGeometry width="50" height="50" relative="1" as="geometry">
            <mxPoint x="440" y="320" as="sourcePoint" />
            <mxPoint x="440" y="280" as="targetPoint" />
          </mxGeometry>
        </mxCell>
        <mxCell id="w3fj2gbgNoyU7OF5bVDR-16" value="" style="endArrow=none;html=1;rounded=0;" parent="1" edge="1">
          <mxGeometry width="50" height="50" relative="1" as="geometry">
            <mxPoint x="440" y="280" as="sourcePoint" />
            <mxPoint x="480" y="280" as="targetPoint" />
          </mxGeometry>
        </mxCell>
        <mxCell id="w3fj2gbgNoyU7OF5bVDR-17" value="" style="endArrow=none;html=1;rounded=0;" parent="1" edge="1">
          <mxGeometry width="50" height="50" relative="1" as="geometry">
            <mxPoint x="480" y="320" as="sourcePoint" />
            <mxPoint x="480" y="280" as="targetPoint" />
          </mxGeometry>
        </mxCell>
        <mxCell id="w3fj2gbgNoyU7OF5bVDR-18" value="" style="endArrow=none;html=1;rounded=0;" parent="1" edge="1">
          <mxGeometry width="50" height="50" relative="1" as="geometry">
            <mxPoint x="480" y="320" as="sourcePoint" />
            <mxPoint x="520" y="320" as="targetPoint" />
          </mxGeometry>
        </mxCell>
        <mxCell id="w3fj2gbgNoyU7OF5bVDR-19" value="" style="endArrow=none;html=1;rounded=0;" parent="1" edge="1">
          <mxGeometry width="50" height="50" relative="1" as="geometry">
            <mxPoint x="520" y="320" as="sourcePoint" />
            <mxPoint x="520" y="280" as="targetPoint" />
          </mxGeometry>
        </mxCell>
        <mxCell id="w3fj2gbgNoyU7OF5bVDR-20" value="" style="endArrow=none;html=1;rounded=0;" parent="1" edge="1">
          <mxGeometry width="50" height="50" relative="1" as="geometry">
            <mxPoint x="520" y="280" as="sourcePoint" />
            <mxPoint x="560" y="280" as="targetPoint" />
          </mxGeometry>
        </mxCell>
        <mxCell id="w3fj2gbgNoyU7OF5bVDR-21" value="" style="endArrow=none;html=1;rounded=0;" parent="1" edge="1">
          <mxGeometry width="50" height="50" relative="1" as="geometry">
            <mxPoint x="560" y="320" as="sourcePoint" />
            <mxPoint x="560" y="280" as="targetPoint" />
          </mxGeometry>
        </mxCell>
        <mxCell id="w3fj2gbgNoyU7OF5bVDR-22" value="" style="endArrow=none;html=1;rounded=0;" parent="1" edge="1">
          <mxGeometry width="50" height="50" relative="1" as="geometry">
            <mxPoint x="560" y="320" as="sourcePoint" />
            <mxPoint x="600" y="320" as="targetPoint" />
          </mxGeometry>
        </mxCell>
        <mxCell id="w3fj2gbgNoyU7OF5bVDR-23" value="" style="endArrow=none;html=1;rounded=0;" parent="1" edge="1">
          <mxGeometry width="50" height="50" relative="1" as="geometry">
            <mxPoint x="600" y="320" as="sourcePoint" />
            <mxPoint x="600" y="280" as="targetPoint" />
          </mxGeometry>
        </mxCell>
        <mxCell id="w3fj2gbgNoyU7OF5bVDR-24" value="" style="endArrow=none;html=1;rounded=0;" parent="1" edge="1">
          <mxGeometry width="50" height="50" relative="1" as="geometry">
            <mxPoint x="600" y="280" as="sourcePoint" />
            <mxPoint x="640" y="280" as="targetPoint" />
          </mxGeometry>
        </mxCell>
        <mxCell id="w3fj2gbgNoyU7OF5bVDR-25" value="" style="endArrow=none;html=1;rounded=0;" parent="1" edge="1">
          <mxGeometry width="50" height="50" relative="1" as="geometry">
            <mxPoint x="640" y="320" as="sourcePoint" />
            <mxPoint x="640" y="280" as="targetPoint" />
          </mxGeometry>
        </mxCell>
        <mxCell id="w3fj2gbgNoyU7OF5bVDR-26" value="" style="endArrow=none;html=1;rounded=0;" parent="1" edge="1">
          <mxGeometry width="50" height="50" relative="1" as="geometry">
            <mxPoint x="640" y="320" as="sourcePoint" />
            <mxPoint x="680" y="320" as="targetPoint" />
          </mxGeometry>
        </mxCell>
        <mxCell id="w3fj2gbgNoyU7OF5bVDR-48" value="&lt;font style=&quot;font-size: 24px;&quot;&gt;CLK&lt;/font&gt;" style="text;html=1;align=center;verticalAlign=middle;whiteSpace=wrap;rounded=0;" parent="1" vertex="1">
          <mxGeometry x="90" y="300" width="60" height="30" as="geometry" />
        </mxCell>
        <mxCell id="w3fj2gbgNoyU7OF5bVDR-49" value="" style="endArrow=none;html=1;rounded=0;" parent="1" edge="1">
          <mxGeometry width="50" height="50" relative="1" as="geometry">
            <mxPoint x="680" y="320" as="sourcePoint" />
            <mxPoint x="680" y="280" as="targetPoint" />
          </mxGeometry>
        </mxCell>
        <mxCell id="w3fj2gbgNoyU7OF5bVDR-50" value="" style="endArrow=none;html=1;rounded=0;" parent="1" edge="1">
          <mxGeometry width="50" height="50" relative="1" as="geometry">
            <mxPoint x="680" y="280" as="sourcePoint" />
            <mxPoint x="720" y="280" as="targetPoint" />
          </mxGeometry>
        </mxCell>
        <mxCell id="w3fj2gbgNoyU7OF5bVDR-51" value="" style="endArrow=none;html=1;rounded=0;" parent="1" edge="1">
          <mxGeometry width="50" height="50" relative="1" as="geometry">
            <mxPoint x="720" y="320" as="sourcePoint" />
            <mxPoint x="720" y="280" as="targetPoint" />
          </mxGeometry>
        </mxCell>
        <mxCell id="w3fj2gbgNoyU7OF5bVDR-52" value="" style="endArrow=none;html=1;rounded=0;" parent="1" edge="1">
          <mxGeometry width="50" height="50" relative="1" as="geometry">
            <mxPoint x="720" y="320" as="sourcePoint" />
            <mxPoint x="760" y="320" as="targetPoint" />
          </mxGeometry>
        </mxCell>
        <mxCell id="w3fj2gbgNoyU7OF5bVDR-53" value="" style="endArrow=none;html=1;rounded=0;" parent="1" edge="1">
          <mxGeometry width="50" height="50" relative="1" as="geometry">
            <mxPoint x="760" y="320" as="sourcePoint" />
            <mxPoint x="760" y="280" as="targetPoint" />
          </mxGeometry>
        </mxCell>
        <mxCell id="w3fj2gbgNoyU7OF5bVDR-54" value="" style="endArrow=none;html=1;rounded=0;" parent="1" edge="1">
          <mxGeometry width="50" height="50" relative="1" as="geometry">
            <mxPoint x="760" y="280" as="sourcePoint" />
            <mxPoint x="800" y="280" as="targetPoint" />
          </mxGeometry>
        </mxCell>
        <mxCell id="w3fj2gbgNoyU7OF5bVDR-55" value="" style="endArrow=none;html=1;rounded=0;" parent="1" edge="1">
          <mxGeometry width="50" height="50" relative="1" as="geometry">
            <mxPoint x="800" y="320" as="sourcePoint" />
            <mxPoint x="800" y="280" as="targetPoint" />
          </mxGeometry>
        </mxCell>
        <mxCell id="w3fj2gbgNoyU7OF5bVDR-61" value="&lt;font style=&quot;font-size: 24px;&quot;&gt;Out&lt;/font&gt;" style="text;html=1;align=center;verticalAlign=middle;whiteSpace=wrap;rounded=0;" parent="1" vertex="1">
          <mxGeometry x="90" y="380" width="60" height="30" as="geometry" />
        </mxCell>
        <mxCell id="AQtglL6U4FNc2CjWORVU-33" value="" style="endArrow=none;html=1;rounded=0;" parent="1" edge="1">
          <mxGeometry width="50" height="50" relative="1" as="geometry">
            <mxPoint x="160" y="401" as="sourcePoint" />
            <mxPoint x="200" y="401" as="targetPoint" />
          </mxGeometry>
        </mxCell>
        <mxCell id="AQtglL6U4FNc2CjWORVU-34" value="" style="endArrow=none;html=1;rounded=0;" parent="1" edge="1">
          <mxGeometry width="50" height="50" relative="1" as="geometry">
            <mxPoint x="200" y="401" as="sourcePoint" />
            <mxPoint x="200" y="361" as="targetPoint" />
          </mxGeometry>
        </mxCell>
        <mxCell id="AQtglL6U4FNc2CjWORVU-35" value="" style="endArrow=none;html=1;rounded=0;" parent="1" edge="1">
          <mxGeometry width="50" height="50" relative="1" as="geometry">
            <mxPoint x="200" y="361" as="sourcePoint" />
            <mxPoint x="280" y="361" as="targetPoint" />
          </mxGeometry>
        </mxCell>
        <mxCell id="AQtglL6U4FNc2CjWORVU-38" value="" style="endArrow=none;html=1;rounded=0;" parent="1" edge="1">
          <mxGeometry width="50" height="50" relative="1" as="geometry">
            <mxPoint x="280" y="401" as="sourcePoint" />
            <mxPoint x="280" y="361" as="targetPoint" />
          </mxGeometry>
        </mxCell>
        <mxCell id="AQtglL6U4FNc2CjWORVU-67" value="" style="endArrow=none;html=1;rounded=0;" parent="1" edge="1">
          <mxGeometry width="50" height="50" relative="1" as="geometry">
            <mxPoint x="280" y="361" as="sourcePoint" />
            <mxPoint x="360" y="361" as="targetPoint" />
          </mxGeometry>
        </mxCell>
        <mxCell id="AQtglL6U4FNc2CjWORVU-68" value="" style="endArrow=none;html=1;rounded=0;" parent="1" edge="1">
          <mxGeometry width="50" height="50" relative="1" as="geometry">
            <mxPoint x="360" y="401" as="sourcePoint" />
            <mxPoint x="360" y="361" as="targetPoint" />
          </mxGeometry>
        </mxCell>
        <mxCell id="AQtglL6U4FNc2CjWORVU-70" value="" style="endArrow=none;html=1;rounded=0;" parent="1" edge="1">
          <mxGeometry width="50" height="50" relative="1" as="geometry">
            <mxPoint x="360" y="361" as="sourcePoint" />
            <mxPoint x="440" y="361" as="targetPoint" />
          </mxGeometry>
        </mxCell>
        <mxCell id="AQtglL6U4FNc2CjWORVU-71" value="" style="endArrow=none;html=1;rounded=0;" parent="1" edge="1">
          <mxGeometry width="50" height="50" relative="1" as="geometry">
            <mxPoint x="440" y="401" as="sourcePoint" />
            <mxPoint x="440" y="361" as="targetPoint" />
          </mxGeometry>
        </mxCell>
        <mxCell id="AQtglL6U4FNc2CjWORVU-72" value="" style="endArrow=none;html=1;rounded=0;" parent="1" edge="1">
          <mxGeometry width="50" height="50" relative="1" as="geometry">
            <mxPoint x="440" y="361" as="sourcePoint" />
            <mxPoint x="520" y="361" as="targetPoint" />
          </mxGeometry>
        </mxCell>
        <mxCell id="AQtglL6U4FNc2CjWORVU-73" value="" style="endArrow=none;html=1;rounded=0;" parent="1" edge="1">
          <mxGeometry width="50" height="50" relative="1" as="geometry">
            <mxPoint x="520" y="401" as="sourcePoint" />
            <mxPoint x="520" y="361" as="targetPoint" />
          </mxGeometry>
        </mxCell>
        <mxCell id="AQtglL6U4FNc2CjWORVU-74" value="" style="endArrow=none;html=1;rounded=0;" parent="1" edge="1">
          <mxGeometry width="50" height="50" relative="1" as="geometry">
            <mxPoint x="520" y="361" as="sourcePoint" />
            <mxPoint x="600" y="361" as="targetPoint" />
          </mxGeometry>
        </mxCell>
        <mxCell id="AQtglL6U4FNc2CjWORVU-75" value="" style="endArrow=none;html=1;rounded=0;" parent="1" edge="1">
          <mxGeometry width="50" height="50" relative="1" as="geometry">
            <mxPoint x="600" y="401" as="sourcePoint" />
            <mxPoint x="600" y="361" as="targetPoint" />
          </mxGeometry>
        </mxCell>
        <mxCell id="AQtglL6U4FNc2CjWORVU-76" value="" style="endArrow=none;html=1;rounded=0;" parent="1" edge="1">
          <mxGeometry width="50" height="50" relative="1" as="geometry">
            <mxPoint x="600" y="361" as="sourcePoint" />
            <mxPoint x="680" y="361" as="targetPoint" />
          </mxGeometry>
        </mxCell>
        <mxCell id="AQtglL6U4FNc2CjWORVU-77" value="" style="endArrow=none;html=1;rounded=0;" parent="1" edge="1">
          <mxGeometry width="50" height="50" relative="1" as="geometry">
            <mxPoint x="680" y="401" as="sourcePoint" />
            <mxPoint x="680" y="361" as="targetPoint" />
          </mxGeometry>
        </mxCell>
        <mxCell id="AQtglL6U4FNc2CjWORVU-78" value="" style="endArrow=none;html=1;rounded=0;" parent="1" edge="1">
          <mxGeometry width="50" height="50" relative="1" as="geometry">
            <mxPoint x="680" y="361" as="sourcePoint" />
            <mxPoint x="760" y="361" as="targetPoint" />
          </mxGeometry>
        </mxCell>
        <mxCell id="AQtglL6U4FNc2CjWORVU-79" value="" style="endArrow=none;html=1;rounded=0;" parent="1" edge="1">
          <mxGeometry width="50" height="50" relative="1" as="geometry">
            <mxPoint x="760" y="401" as="sourcePoint" />
            <mxPoint x="760" y="361" as="targetPoint" />
          </mxGeometry>
        </mxCell>
        <mxCell id="AQtglL6U4FNc2CjWORVU-80" value="" style="endArrow=none;html=1;rounded=0;" parent="1" edge="1">
          <mxGeometry width="50" height="50" relative="1" as="geometry">
            <mxPoint x="760" y="361" as="sourcePoint" />
            <mxPoint x="840" y="361" as="targetPoint" />
          </mxGeometry>
        </mxCell>
        <mxCell id="AQtglL6U4FNc2CjWORVU-81" value="" style="endArrow=none;html=1;rounded=0;" parent="1" edge="1">
          <mxGeometry width="50" height="50" relative="1" as="geometry">
            <mxPoint x="840" y="401" as="sourcePoint" />
            <mxPoint x="840" y="361" as="targetPoint" />
          </mxGeometry>
        </mxCell>
        <mxCell id="AQtglL6U4FNc2CjWORVU-82" value="" style="endArrow=none;html=1;rounded=0;" parent="1" edge="1">
          <mxGeometry width="50" height="50" relative="1" as="geometry">
            <mxPoint x="800" y="320" as="sourcePoint" />
            <mxPoint x="840" y="320" as="targetPoint" />
          </mxGeometry>
        </mxCell>
        <mxCell id="AQtglL6U4FNc2CjWORVU-83" value="&lt;font style=&quot;font-size: 24px;&quot;&gt;0x000&lt;/font&gt;" style="text;html=1;align=center;verticalAlign=middle;resizable=0;points=[];autosize=1;strokeColor=none;fillColor=none;" parent="1" vertex="1">
          <mxGeometry x="194" y="363" width="90" height="40" as="geometry" />
        </mxCell>
        <mxCell id="AQtglL6U4FNc2CjWORVU-84" value="&lt;font style=&quot;font-size: 24px;&quot;&gt;0xFFF&lt;/font&gt;" style="text;html=1;align=center;verticalAlign=middle;resizable=0;points=[];autosize=1;strokeColor=none;fillColor=none;" parent="1" vertex="1">
          <mxGeometry x="275" y="363" width="90" height="40" as="geometry" />
        </mxCell>
        <mxCell id="AQtglL6U4FNc2CjWORVU-85" value="&lt;font style=&quot;font-size: 24px;&quot;&gt;0x000&lt;/font&gt;" style="text;html=1;align=center;verticalAlign=middle;resizable=0;points=[];autosize=1;strokeColor=none;fillColor=none;" parent="1" vertex="1">
          <mxGeometry x="355" y="363" width="90" height="40" as="geometry" />
        </mxCell>
        <mxCell id="AQtglL6U4FNc2CjWORVU-86" value="&lt;font style=&quot;font-size: 24px;&quot;&gt;0xFFF&lt;/font&gt;" style="text;html=1;align=center;verticalAlign=middle;resizable=0;points=[];autosize=1;strokeColor=none;fillColor=none;" parent="1" vertex="1">
          <mxGeometry x="432" y="363" width="90" height="40" as="geometry" />
        </mxCell>
        <mxCell id="AQtglL6U4FNc2CjWORVU-87" value="&lt;font style=&quot;font-size: 24px;&quot;&gt;0x000&lt;/font&gt;" style="text;html=1;align=center;verticalAlign=middle;resizable=0;points=[];autosize=1;strokeColor=none;fillColor=none;" parent="1" vertex="1">
          <mxGeometry x="511" y="363" width="90" height="40" as="geometry" />
        </mxCell>
        <mxCell id="AQtglL6U4FNc2CjWORVU-88" value="&lt;font style=&quot;font-size: 24px;&quot;&gt;0xFFF&lt;/font&gt;" style="text;html=1;align=center;verticalAlign=middle;resizable=0;points=[];autosize=1;strokeColor=none;fillColor=none;" parent="1" vertex="1">
          <mxGeometry x="594" y="363" width="90" height="40" as="geometry" />
        </mxCell>
        <mxCell id="AQtglL6U4FNc2CjWORVU-89" value="&lt;span style=&quot;font-size: 24px;&quot;&gt;0x000&lt;/span&gt;" style="text;html=1;align=center;verticalAlign=middle;resizable=0;points=[];autosize=1;strokeColor=none;fillColor=none;" parent="1" vertex="1">
          <mxGeometry x="675" y="363" width="90" height="40" as="geometry" />
        </mxCell>
        <mxCell id="AQtglL6U4FNc2CjWORVU-90" value="&lt;font style=&quot;font-size: 24px;&quot;&gt;0xFFF&lt;/font&gt;" style="text;html=1;align=center;verticalAlign=middle;resizable=0;points=[];autosize=1;strokeColor=none;fillColor=none;" parent="1" vertex="1">
          <mxGeometry x="757" y="363" width="90" height="40" as="geometry" />
        </mxCell>
        <mxCell id="AQtglL6U4FNc2CjWORVU-93" value="&lt;font style=&quot;font-size: 72px;&quot;&gt;...&lt;/font&gt;" style="text;html=1;align=center;verticalAlign=middle;resizable=0;points=[];autosize=1;strokeColor=none;fillColor=none;" parent="1" vertex="1">
          <mxGeometry x="865" y="321" width="80" height="100" as="geometry" />
        </mxCell>
        <mxCell id="AQtglL6U4FNc2CjWORVU-94" value="&lt;font style=&quot;font-size: 72px;&quot;&gt;...&lt;/font&gt;" style="text;html=1;align=center;verticalAlign=middle;resizable=0;points=[];autosize=1;strokeColor=none;fillColor=none;" parent="1" vertex="1">
          <mxGeometry x="865" y="240" width="80" height="100" as="geometry" />
        </mxCell>
        <mxCell id="AQtglL6U4FNc2CjWORVU-96" value="" style="endArrow=none;html=1;rounded=0;" parent="1" edge="1">
          <mxGeometry width="50" height="50" relative="1" as="geometry">
            <mxPoint x="961" y="320" as="sourcePoint" />
            <mxPoint x="961" y="280" as="targetPoint" />
          </mxGeometry>
        </mxCell>
        <mxCell id="AQtglL6U4FNc2CjWORVU-97" value="" style="endArrow=none;html=1;rounded=0;" parent="1" edge="1">
          <mxGeometry width="50" height="50" relative="1" as="geometry">
            <mxPoint x="961" y="280" as="sourcePoint" />
            <mxPoint x="1001" y="280" as="targetPoint" />
          </mxGeometry>
        </mxCell>
        <mxCell id="AQtglL6U4FNc2CjWORVU-98" value="" style="endArrow=none;html=1;rounded=0;" parent="1" edge="1">
          <mxGeometry width="50" height="50" relative="1" as="geometry">
            <mxPoint x="1001" y="320" as="sourcePoint" />
            <mxPoint x="1001" y="280" as="targetPoint" />
          </mxGeometry>
        </mxCell>
        <mxCell id="AQtglL6U4FNc2CjWORVU-99" value="" style="endArrow=none;html=1;rounded=0;" parent="1" edge="1">
          <mxGeometry width="50" height="50" relative="1" as="geometry">
            <mxPoint x="1001" y="320" as="sourcePoint" />
            <mxPoint x="1041" y="320" as="targetPoint" />
          </mxGeometry>
        </mxCell>
        <mxCell id="AQtglL6U4FNc2CjWORVU-100" value="" style="endArrow=none;html=1;rounded=0;" parent="1" edge="1">
          <mxGeometry width="50" height="50" relative="1" as="geometry">
            <mxPoint x="1041" y="320" as="sourcePoint" />
            <mxPoint x="1041" y="280" as="targetPoint" />
          </mxGeometry>
        </mxCell>
        <mxCell id="AQtglL6U4FNc2CjWORVU-101" value="" style="endArrow=none;html=1;rounded=0;" parent="1" edge="1">
          <mxGeometry width="50" height="50" relative="1" as="geometry">
            <mxPoint x="1041" y="280" as="sourcePoint" />
            <mxPoint x="1081" y="280" as="targetPoint" />
          </mxGeometry>
        </mxCell>
        <mxCell id="AQtglL6U4FNc2CjWORVU-102" value="" style="endArrow=none;html=1;rounded=0;" parent="1" edge="1">
          <mxGeometry width="50" height="50" relative="1" as="geometry">
            <mxPoint x="1081" y="320" as="sourcePoint" />
            <mxPoint x="1081" y="280" as="targetPoint" />
          </mxGeometry>
        </mxCell>
        <mxCell id="AQtglL6U4FNc2CjWORVU-103" value="" style="endArrow=none;html=1;rounded=0;" parent="1" edge="1">
          <mxGeometry width="50" height="50" relative="1" as="geometry">
            <mxPoint x="1081" y="320" as="sourcePoint" />
            <mxPoint x="1121" y="320" as="targetPoint" />
          </mxGeometry>
        </mxCell>
        <mxCell id="AQtglL6U4FNc2CjWORVU-104" value="" style="endArrow=none;html=1;rounded=0;" parent="1" edge="1">
          <mxGeometry width="50" height="50" relative="1" as="geometry">
            <mxPoint x="1121" y="320" as="sourcePoint" />
            <mxPoint x="1121" y="280" as="targetPoint" />
          </mxGeometry>
        </mxCell>
        <mxCell id="AQtglL6U4FNc2CjWORVU-105" value="" style="endArrow=none;html=1;rounded=0;" parent="1" edge="1">
          <mxGeometry width="50" height="50" relative="1" as="geometry">
            <mxPoint x="1121" y="280" as="sourcePoint" />
            <mxPoint x="1161" y="280" as="targetPoint" />
          </mxGeometry>
        </mxCell>
        <mxCell id="AQtglL6U4FNc2CjWORVU-106" value="" style="endArrow=none;html=1;rounded=0;" parent="1" edge="1">
          <mxGeometry width="50" height="50" relative="1" as="geometry">
            <mxPoint x="1161" y="320" as="sourcePoint" />
            <mxPoint x="1161" y="280" as="targetPoint" />
          </mxGeometry>
        </mxCell>
        <mxCell id="AQtglL6U4FNc2CjWORVU-107" value="" style="endArrow=none;html=1;rounded=0;" parent="1" edge="1">
          <mxGeometry width="50" height="50" relative="1" as="geometry">
            <mxPoint x="1161" y="320" as="sourcePoint" />
            <mxPoint x="1201" y="320" as="targetPoint" />
          </mxGeometry>
        </mxCell>
        <mxCell id="AQtglL6U4FNc2CjWORVU-108" value="" style="endArrow=none;html=1;rounded=0;" parent="1" edge="1">
          <mxGeometry width="50" height="50" relative="1" as="geometry">
            <mxPoint x="1201" y="320" as="sourcePoint" />
            <mxPoint x="1201" y="280" as="targetPoint" />
          </mxGeometry>
        </mxCell>
        <mxCell id="AQtglL6U4FNc2CjWORVU-110" value="" style="endArrow=none;html=1;rounded=0;" parent="1" edge="1">
          <mxGeometry width="50" height="50" relative="1" as="geometry">
            <mxPoint x="961" y="401" as="sourcePoint" />
            <mxPoint x="961" y="361" as="targetPoint" />
          </mxGeometry>
        </mxCell>
        <mxCell id="AQtglL6U4FNc2CjWORVU-111" value="" style="endArrow=none;html=1;rounded=0;" parent="1" edge="1">
          <mxGeometry width="50" height="50" relative="1" as="geometry">
            <mxPoint x="961" y="361" as="sourcePoint" />
            <mxPoint x="1041" y="361" as="targetPoint" />
          </mxGeometry>
        </mxCell>
        <mxCell id="AQtglL6U4FNc2CjWORVU-112" value="" style="endArrow=none;html=1;rounded=0;" parent="1" edge="1">
          <mxGeometry width="50" height="50" relative="1" as="geometry">
            <mxPoint x="1041" y="401" as="sourcePoint" />
            <mxPoint x="1041" y="361" as="targetPoint" />
          </mxGeometry>
        </mxCell>
        <mxCell id="AQtglL6U4FNc2CjWORVU-113" value="" style="endArrow=none;html=1;rounded=0;" parent="1" edge="1">
          <mxGeometry width="50" height="50" relative="1" as="geometry">
            <mxPoint x="1041" y="361" as="sourcePoint" />
            <mxPoint x="1121" y="361" as="targetPoint" />
          </mxGeometry>
        </mxCell>
        <mxCell id="AQtglL6U4FNc2CjWORVU-114" value="" style="endArrow=none;html=1;rounded=0;" parent="1" edge="1">
          <mxGeometry width="50" height="50" relative="1" as="geometry">
            <mxPoint x="1121" y="401" as="sourcePoint" />
            <mxPoint x="1121" y="361" as="targetPoint" />
          </mxGeometry>
        </mxCell>
        <mxCell id="AQtglL6U4FNc2CjWORVU-115" value="" style="endArrow=none;html=1;rounded=0;" parent="1" edge="1">
          <mxGeometry width="50" height="50" relative="1" as="geometry">
            <mxPoint x="1121" y="361" as="sourcePoint" />
            <mxPoint x="1201" y="361" as="targetPoint" />
          </mxGeometry>
        </mxCell>
        <mxCell id="AQtglL6U4FNc2CjWORVU-116" value="" style="endArrow=none;html=1;rounded=0;" parent="1" edge="1">
          <mxGeometry width="50" height="50" relative="1" as="geometry">
            <mxPoint x="1201" y="401" as="sourcePoint" />
            <mxPoint x="1201" y="361" as="targetPoint" />
          </mxGeometry>
        </mxCell>
        <mxCell id="AQtglL6U4FNc2CjWORVU-117" value="&lt;font style=&quot;font-size: 24px;&quot;&gt;0xFFF&lt;/font&gt;" style="text;html=1;align=center;verticalAlign=middle;resizable=0;points=[];autosize=1;strokeColor=none;fillColor=none;" parent="1" vertex="1">
          <mxGeometry x="955" y="363" width="90" height="40" as="geometry" />
        </mxCell>
        <mxCell id="AQtglL6U4FNc2CjWORVU-118" value="&lt;font style=&quot;font-size: 24px;&quot;&gt;0x000&lt;/font&gt;" style="text;html=1;align=center;verticalAlign=middle;resizable=0;points=[];autosize=1;strokeColor=none;fillColor=none;" parent="1" vertex="1">
          <mxGeometry x="1036" y="363" width="90" height="40" as="geometry" />
        </mxCell>
        <mxCell id="AQtglL6U4FNc2CjWORVU-119" value="&lt;font style=&quot;font-size: 24px;&quot;&gt;0xFFF&lt;/font&gt;" style="text;html=1;align=center;verticalAlign=middle;resizable=0;points=[];autosize=1;strokeColor=none;fillColor=none;" parent="1" vertex="1">
          <mxGeometry x="1116" y="363" width="90" height="40" as="geometry" />
        </mxCell>
        <mxCell id="AQtglL6U4FNc2CjWORVU-134" value="" style="endArrow=none;html=1;rounded=0;" parent="1" edge="1">
          <mxGeometry width="50" height="50" relative="1" as="geometry">
            <mxPoint x="1201" y="321" as="sourcePoint" />
            <mxPoint x="1201" y="281" as="targetPoint" />
          </mxGeometry>
        </mxCell>
        <mxCell id="AQtglL6U4FNc2CjWORVU-135" value="" style="endArrow=none;html=1;rounded=0;" parent="1" edge="1">
          <mxGeometry width="50" height="50" relative="1" as="geometry">
            <mxPoint x="1201" y="281" as="sourcePoint" />
            <mxPoint x="1241" y="281" as="targetPoint" />
          </mxGeometry>
        </mxCell>
        <mxCell id="AQtglL6U4FNc2CjWORVU-136" value="" style="endArrow=none;html=1;rounded=0;" parent="1" edge="1">
          <mxGeometry width="50" height="50" relative="1" as="geometry">
            <mxPoint x="1241" y="321" as="sourcePoint" />
            <mxPoint x="1241" y="281" as="targetPoint" />
          </mxGeometry>
        </mxCell>
        <mxCell id="AQtglL6U4FNc2CjWORVU-137" value="" style="endArrow=none;html=1;rounded=0;" parent="1" edge="1">
          <mxGeometry width="50" height="50" relative="1" as="geometry">
            <mxPoint x="1241" y="321" as="sourcePoint" />
            <mxPoint x="1281" y="321" as="targetPoint" />
          </mxGeometry>
        </mxCell>
        <mxCell id="AQtglL6U4FNc2CjWORVU-138" value="" style="endArrow=none;html=1;rounded=0;" parent="1" edge="1">
          <mxGeometry width="50" height="50" relative="1" as="geometry">
            <mxPoint x="1281" y="321" as="sourcePoint" />
            <mxPoint x="1281" y="281" as="targetPoint" />
          </mxGeometry>
        </mxCell>
        <mxCell id="AQtglL6U4FNc2CjWORVU-139" value="" style="endArrow=none;html=1;rounded=0;" parent="1" edge="1">
          <mxGeometry width="50" height="50" relative="1" as="geometry">
            <mxPoint x="1281" y="281" as="sourcePoint" />
            <mxPoint x="1321" y="281" as="targetPoint" />
          </mxGeometry>
        </mxCell>
        <mxCell id="AQtglL6U4FNc2CjWORVU-140" value="" style="endArrow=none;html=1;rounded=0;" parent="1" edge="1">
          <mxGeometry width="50" height="50" relative="1" as="geometry">
            <mxPoint x="1321" y="321" as="sourcePoint" />
            <mxPoint x="1321" y="281" as="targetPoint" />
          </mxGeometry>
        </mxCell>
        <mxCell id="AQtglL6U4FNc2CjWORVU-141" value="" style="endArrow=none;html=1;rounded=0;" parent="1" edge="1">
          <mxGeometry width="50" height="50" relative="1" as="geometry">
            <mxPoint x="1321" y="321" as="sourcePoint" />
            <mxPoint x="1361" y="321" as="targetPoint" />
          </mxGeometry>
        </mxCell>
        <mxCell id="AQtglL6U4FNc2CjWORVU-142" value="" style="endArrow=none;html=1;rounded=0;exitX=1.013;exitY=0.933;exitDx=0;exitDy=0;exitPerimeter=0;" parent="1" edge="1">
          <mxGeometry width="50" height="50" relative="1" as="geometry">
            <mxPoint x="1201.17" y="400.31999999999994" as="sourcePoint" />
            <mxPoint x="1360" y="400" as="targetPoint" />
          </mxGeometry>
        </mxCell>
      </root>
    </mxGraphModel>
  </diagram>
</mxfile>
